<?xml version="1.0" encoding="utf-8"?>
<!-- Generator: Adobe Illustrator 16.0.0, SVG Export Plug-In . SVG Version: 6.00 Build 0)  -->
<!DOCTYPE svg PUBLIC "-//W3C//DTD SVG 1.1//EN" "http://www.w3.org/Graphics/SVG/1.1/DTD/svg11.dtd">
<svg version="1.1" id="Layer_1" xmlns="http://www.w3.org/2000/svg" xmlns:xlink="http://www.w3.org/1999/xlink" x="0px" y="0px"
	 width="1280px" height="412.182px" viewBox="0 0 1280 412.182" enable-background="new 0 0 1280 412.182" xml:space="preserve">
<g>
	<g>
		<path fill="#CFA551" stroke="#CFA551" stroke-miterlimit="10" d="M1052.209,21.341c-8.219,2.471-14.814,8.627-19.074,17.804
			c-0.927,1.997-1.221,4.099-1.455,5.788c-0.099,0.715-0.193,1.391-0.314,1.911c-0.078,0.339-0.119,0.685-0.121,1.032
			c-0.285,41.035-0.233,82.754-0.187,123.1c0.034,28.402,0.07,57.771-0.011,86.668c0,0.017,0.001,0.032,0.002,0.05
			c-0.084,0.355-0.132,0.727-0.13,1.108c0.05,7.377-2.771,14.327-7.945,19.571c-4.988,5.055-11.596,7.938-18.675,8.181
			c-0.28-0.052-0.568-0.082-0.865-0.082c-13.64,0-24.736-11.097-24.736-24.736c0-2.601-2.107-4.709-4.708-4.709
			s-4.71,2.108-4.71,4.709c0,18.503,14.793,33.606,33.172,34.13c0.351,0.083,0.715,0.132,1.09,0.132c0.011,0,0.022,0,0.032,0
			c9.894-0.065,19.164-3.976,26.105-11.01c6.939-7.033,10.726-16.354,10.66-26.248c0-0.004-0.001-0.007-0.001-0.011
			c0.08-0.341,0.126-0.693,0.128-1.059c0.081-28.916,0.046-58.295,0.011-86.705c-0.048-40.169-0.098-81.699,0.182-122.542
			c0.149-0.745,0.251-1.479,0.351-2.192c0.165-1.18,0.333-2.398,0.669-3.12c2.158-4.649,6.207-10.635,13.242-12.749
			c2.49-0.749,3.901-3.375,3.155-5.866C1057.325,22.004,1054.699,20.592,1052.209,21.341z"/>
		<path fill="#CFA551" stroke="#CFA551" stroke-miterlimit="10" d="M1097.433,116.087c-19.622,0-35.585,15.963-35.585,35.584
			v138.974c0,2.601,2.109,4.709,4.71,4.709s4.708-2.108,4.708-4.709v-55.373h52.331v55.373c0,2.601,2.108,4.709,4.71,4.709
			c2.6,0,4.708-2.108,4.708-4.709V151.671C1133.015,132.05,1117.053,116.087,1097.433,116.087z M1123.597,225.852h-52.331v-74.181
			c0-14.427,11.738-26.165,26.167-26.165c14.427,0,26.164,11.738,26.164,26.165V225.852z"/>
		<path fill="#CFA551" stroke="#CFA551" stroke-miterlimit="10" d="M1158.13,125.601h56.167l-59.496,59.496
			c-1.348,1.347-1.75,3.372-1.021,5.132c0.729,1.76,2.444,2.908,4.35,2.908h67.536c2.602,0,4.71-2.108,4.71-4.711
			c0-2.6-2.108-4.709-4.71-4.709h-56.167l59.497-59.496c1.348-1.347,1.75-3.372,1.021-5.132c-0.729-1.76-2.447-2.907-4.352-2.907
			h-67.536c-2.601,0-4.709,2.108-4.709,4.708C1153.421,123.491,1155.529,125.601,1158.13,125.601z"/>
		<path fill="#CFA551" stroke="#CFA551" stroke-miterlimit="10" d="M1226.349,284.902h-59.34l62.669-62.67
			c1.348-1.348,1.75-3.372,1.021-5.133c-0.729-1.759-2.445-2.907-4.351-2.907h-70.71c-2.601,0-4.71,2.109-4.71,4.71
			c0,2.602,2.109,4.709,4.71,4.709h59.34l-62.67,62.67c-1.346,1.348-1.75,3.372-1.021,5.133c0.729,1.76,2.447,2.906,4.351,2.906
			h70.71c2.602,0,4.709-2.108,4.709-4.708C1231.058,287.01,1228.95,284.902,1226.349,284.902z"/>
	</g>
	<g>
		<path fill="#CFA551" d="M1230.689,340.764c0.001-0.091,0.007-0.18,0.007-0.271c0-0.149-0.01-0.297-0.025-0.442
			c-0.499-12.003-10.392-21.618-22.504-21.667c-0.03,0-0.06-0.004-0.089-0.004l-446.498,0.002c-7.581,0-13.749-6.648-13.768-14.616
			c0.037-7.684,6.923-14.583,14.771-14.583h154.333c12.247,0,24.185,7.731,29.704,18.983c0.707,1.442,2.152,2.362,3.656,2.362
			c0.602,0,1.214-0.09,1.79-0.373c2.019-0.99,2.852-3.508,1.862-5.526c-6.856-13.978-21.73-23.446-37.013-23.446H762.584
			c-12.363,0-22.648,10.361-22.745,22.547c0,0.023,0.161,0.119,0.161,0.144c0,0.012,0,0.037,0,0.048c0,0.021-0.166,0.05-0.166,0.07
			c0,0.044-0.076-0.08-0.076-0.038c0.119,12.37,9.814,22.229,21.822,22.229h446.451c0.015,0,0.029,0.171,0.045,0.171
			c7.904,0,14.346,6.558,14.473,14.433c-0.146,7.859-6.58,14.396-14.471,14.396h-335.56c-2.248,0-4.07,1.752-4.07,4
			c0,2.247,1.822,4,4.07,4h335.56c12.156,0,22.101-9.678,22.594-21.716c0.015-0.142,0.023-0.302,0.023-0.447
			C1230.695,340.939,1230.69,340.844,1230.689,340.764z"/>
		<path fill="#CFA551" d="M772.733,270.182h145.233c0.393,0,0.773-0.443,1.134-0.548c14.046-0.421,27.575-8.819,34.709-21.335
			c1.113-1.953,0.434-4.535-1.521-5.648c-1.953-1.114-4.438-0.481-5.552,1.473c-5.903,10.356-17.197,16.982-28.771,16.982
			c-0.372,0-0.732-0.924-1.074,0.076H772.733c-2.247,0-4.07,2.252-4.07,4.5S770.486,270.182,772.733,270.182z"/>
	</g>
</g>
</svg>
