<?xml version="1.0" encoding="utf-8"?>
<!-- Generator: Adobe Illustrator 16.0.0, SVG Export Plug-In . SVG Version: 6.00 Build 0)  -->
<!DOCTYPE svg PUBLIC "-//W3C//DTD SVG 1.1//EN" "http://www.w3.org/Graphics/SVG/1.1/DTD/svg11.dtd">
<svg version="1.1" id="Layer_1" xmlns="http://www.w3.org/2000/svg" xmlns:xlink="http://www.w3.org/1999/xlink" x="0px" y="0px"
	 width="1280px" height="800px" viewBox="0 0 1280 800" enable-background="new 0 0 1280 800" xml:space="preserve">
<g>
	<rect x="-0.5" y="0.5" fill="#333333" width="1280" height="800"/>
	<g>
		<path fill="#E6E6E6" d="M326.258,346.086l-9.472,19.68c-8.855-5.043-21.401-9.594-28.659-9.594c-4.305,0-7.134,1.476-7.134,4.674
			c0,12.669,45.019,5.166,45.019,36.285c0,18.327-16.236,27.061-35.548,27.061c-14.637,0-30.627-5.166-41.451-13.653l9.595-19.434
			c8.855,7.503,23.247,13.161,32.103,13.161c5.412,0,8.856-1.846,8.856-5.781c0-13.038-45.019-4.797-45.019-35.179
			c0-16.605,14.146-27.183,35.67-27.183C303.379,336.123,316.909,340.059,326.258,346.086z"/>
		<path fill="#E6E6E6" d="M396.49,423.453V391.35h-30.627v32.104h-25.585v-86.224h25.585v34.317h30.627v-34.317h25.584v86.224
			H396.49z"/>
		<path fill="#E6E6E6" d="M530.56,380.28c0,25.338-19.927,44.28-46.987,44.28c-27.06,0-46.986-18.819-46.986-44.28
			c0-25.339,19.927-43.789,46.986-43.789C510.633,336.491,530.56,355.064,530.56,380.28z M462.785,380.403
			c0,13.038,9.841,22.755,21.156,22.755c11.316,0,20.419-9.717,20.419-22.755s-9.103-22.51-20.419-22.51
			C472.503,357.894,462.785,367.365,462.785,380.403z"/>
		<path fill="#E6E6E6" d="M618.38,423.453l-13.776-54.981l-14.021,54.981H564.26l-28.045-86.224h27.307l14.76,59.655l14.392-59.532
			l24.969-0.123l14.761,59.655l14.391-59.655h26.199l-28.29,86.224H618.38z"/>
		<path fill="#E6E6E6" d="M757.201,351.744L742.44,369.21c-5.412-6.888-13.407-11.439-20.541-11.439
			c-11.685,0-20.541,9.472-20.541,22.141s8.856,22.263,20.541,22.263c6.643,0,14.637-3.936,20.541-9.963l14.761,15.744
			c-9.349,10.086-23.493,16.605-36.531,16.605c-26.199,0-45.511-18.942-45.511-44.403c0-25.093,19.68-43.666,46.371-43.666
			C734.568,336.491,748.468,342.396,757.201,351.744z"/>
		<path fill="#E6E6E6" d="M795.01,409.677l-5.166,13.776h-26.322l36.777-86.224h26.322l35.547,86.224h-27.307l-5.043-13.776H795.01z
			 M812.722,362.813l-10.578,28.168h20.91L812.722,362.813z"/>
		<path fill="#E6E6E6" d="M944.701,346.086l-9.472,19.68c-8.855-5.043-21.401-9.594-28.659-9.594c-4.305,0-7.134,1.476-7.134,4.674
			c0,12.669,45.019,5.166,45.019,36.285c0,18.327-16.236,27.061-35.548,27.061c-14.637,0-30.627-5.166-41.451-13.653l9.595-19.434
			c8.855,7.503,23.247,13.161,32.103,13.161c5.412,0,8.856-1.846,8.856-5.781c0-13.038-45.019-4.797-45.019-35.179
			c0-16.605,14.146-27.183,35.67-27.183C921.822,336.123,935.353,340.059,944.701,346.086z"/>
		<path fill="#E6E6E6" d="M984.307,356.91v13.529h40.713v19.681h-40.713v13.653h46.125v19.68h-71.71v-86.224h70.48v19.681H984.307z"
			/>
	</g>
	<g>
		<path fill="#FF9E1D" d="M261.074,511.034c-1.903,0-3.577-0.27-5.024-0.808c-1.447-0.539-2.634-1.283-3.559-2.234
			c-0.926-0.951-1.68-2.137-2.26-3.56c-0.581-1.421-0.989-2.941-1.225-4.557c-0.236-1.616-0.353-3.441-0.353-5.478v-12.9
			c0-2.035,0.117-3.862,0.353-5.478c0.236-1.615,0.644-3.134,1.225-4.557c0.58-1.422,1.334-2.604,2.26-3.547
			c0.924-0.942,2.111-1.682,3.559-2.222c1.448-0.538,3.122-0.808,5.024-0.808c2.104,0,3.921,0.312,5.453,0.935
			c1.53,0.622,2.755,1.539,3.673,2.751c0.917,1.212,1.606,2.617,2.07,4.216c0.462,1.6,0.735,3.467,0.821,5.604
			c0.016,0.319,0.025,0.817,0.025,1.489h-6.462v-1.438c-0.017-0.893-0.051-1.654-0.101-2.285c-0.051-0.631-0.143-1.283-0.277-1.956
			c-0.136-0.673-0.333-1.232-0.593-1.679c-0.261-0.446-0.59-0.858-0.985-1.237c-0.396-0.379-0.896-0.656-1.502-0.833
			c-0.606-0.178-1.312-0.266-2.12-0.266c-1.045,0-1.94,0.169-2.689,0.506c-0.75,0.337-1.334,0.77-1.754,1.299
			c-0.42,0.531-0.745,1.241-0.972,2.134c-0.227,0.893-0.375,1.763-0.441,2.612c-0.067,0.851-0.101,1.898-0.101,3.144v16.156
			c0,1.077,0.045,2.055,0.139,2.928c0.092,0.876,0.273,1.746,0.542,2.613c0.27,0.867,0.619,1.595,1.049,2.184
			c0.428,0.59,1,1.065,1.716,1.427c0.715,0.362,1.552,0.542,2.512,0.542c0.959,0,1.783-0.185,2.474-0.555
			c0.689-0.369,1.232-0.842,1.628-1.414c0.395-0.571,0.707-1.304,0.934-2.195c0.228-0.893,0.375-1.759,0.442-2.602
			c0.067-0.841,0.101-1.817,0.101-2.928v-1.615h6.462v1.615c0,2.339-0.206,4.393-0.618,6.159c-0.413,1.768-1.078,3.329-1.995,4.683
			c-0.917,1.355-2.163,2.386-3.736,3.093C265.192,510.681,263.295,511.034,261.074,511.034z"/>
		<path fill="#FF9E1D" d="M279.475,510.579v-45.237h6.462v19.388h11.31v-19.388h6.462v45.237h-6.462v-21.003h-11.31v21.003H279.475z
			"/>
		<path fill="#FF9E1D" d="M309.413,510.579l9.694-45.237h6.462l9.693,45.237H328.8l-2.423-11.309h-8.078l-2.423,11.309H309.413z
			 M319.106,494.424h6.462l-3.231-19.389L319.106,494.424z"/>
		<path fill="#FF9E1D" d="M346.898,510.579l-9.693-45.237h6.462l4.771,24.234l1.666,11.31l1.717-11.31l4.771-24.234h6.463
			l-9.694,45.237H346.898z"/>
		<path fill="#FF9E1D" d="M380.092,511.034c-2.271,0-4.22-0.345-5.843-1.035c-1.625-0.689-2.916-1.699-3.875-3.029
			c-0.959-1.329-1.658-2.891-2.096-4.683c-0.437-1.792-0.656-3.875-0.656-6.248V479.63c0-2.373,0.219-4.442,0.656-6.21
			c0.438-1.767,1.137-3.303,2.096-4.607c0.959-1.304,2.25-2.284,3.875-2.94c1.623-0.655,3.572-0.984,5.843-0.984
			c4.41,0,7.59,1.262,9.542,3.786s2.929,6.177,2.929,10.956v16.409c0,2.339-0.223,4.405-0.669,6.197
			c-0.446,1.793-1.148,3.357-2.108,4.695c-0.959,1.338-2.251,2.356-3.875,3.055C384.287,510.685,382.348,511.034,380.092,511.034z
			 M375.384,503.688c0.867,1.363,2.437,2.044,4.708,2.044c2.272,0,3.841-0.681,4.708-2.044c0.866-1.363,1.3-3.374,1.3-6.034v-19.64
			c0-2.626-0.429-4.586-1.287-5.882c-0.858-1.296-2.432-1.944-4.721-1.944c-2.289,0-3.862,0.648-4.72,1.944
			c-0.858,1.296-1.288,3.256-1.288,5.882v19.64C374.084,500.314,374.518,502.325,375.384,503.688z"/>
		<path fill="#FF9E1D" d="M400.286,510.579v-45.237h4.847l11.31,27.971v-27.971h6.462v45.237h-4.595l-11.562-30.091v30.091H400.286z
			"/>
		<path fill="#FF9E1D" d="M431.436,510.579v-45.237h17.772v4.847h-11.31v14.541h8.078v4.847h-8.078v16.156h11.31v4.847H431.436z"/>
		<path fill="#FF9E1D" d="M455.238,510.579v-45.237h8.078c4.813,0,8.44,0.935,10.881,2.803c2.439,1.868,3.66,4.973,3.66,9.314
			c0,2.692-0.479,4.948-1.439,6.766c-0.959,1.817-2.365,3.063-4.216,3.736l7.271,22.618h-6.412l-6.513-21.003h-4.847v21.003H455.238
			z M461.701,484.729h1.615c2.693,0,4.712-0.568,6.059-1.704c1.347-1.137,2.02-2.991,2.02-5.566c0-2.574-0.673-4.43-2.02-5.566
			c-1.346-1.136-3.366-1.704-6.059-1.704h-1.615V484.729z"/>
		<path fill="#FF9E1D" d="M496.94,511.034c-2.272,0-4.22-0.345-5.844-1.035c-1.625-0.689-2.916-1.699-3.875-3.029
			c-0.96-1.329-1.659-2.891-2.096-4.683s-0.656-3.875-0.656-6.248V479.63c0-2.373,0.219-4.442,0.656-6.21
			c0.438-1.767,1.136-3.303,2.096-4.607c0.959-1.304,2.25-2.284,3.875-2.94c1.624-0.655,3.572-0.984,5.844-0.984
			c4.41,0,7.59,1.262,9.542,3.786c1.953,2.524,2.929,6.177,2.929,10.956v16.409c0,2.339-0.223,4.405-0.669,6.197
			c-0.446,1.793-1.148,3.357-2.108,4.695c-0.959,1.338-2.251,2.356-3.875,3.055C501.134,510.685,499.195,511.034,496.94,511.034z
			 M492.232,503.688c0.867,1.363,2.436,2.044,4.708,2.044s3.841-0.681,4.708-2.044s1.3-3.374,1.3-6.034v-19.64
			c0-2.626-0.429-4.586-1.287-5.882c-0.858-1.296-2.433-1.944-4.721-1.944s-3.862,0.648-4.72,1.944
			c-0.859,1.296-1.288,3.256-1.288,5.882v19.64C490.932,500.314,491.365,502.325,492.232,503.688z"/>
		<path fill="#FF9E1D" d="M528.923,511.034c-4.074,0-7.183-1.194-9.329-3.585c-2.146-2.389-3.345-5.654-3.597-9.795l6.462-1.615
			c0.319,6.463,2.474,9.693,6.463,9.693c3.231,0,4.847-1.615,4.847-4.847c0-0.959-0.131-1.847-0.392-2.663
			c-0.26-0.815-0.661-1.565-1.199-2.247c-0.538-0.682-1.026-1.228-1.464-1.641c-0.438-0.411-1.035-0.922-1.792-1.527l-8.079-6.463
			c-1.481-1.161-2.664-2.638-3.547-4.43c-0.884-1.793-1.326-3.833-1.326-6.122c0-3.332,1.036-5.982,3.105-7.951
			c2.07-1.97,4.812-2.954,8.229-2.954c3.669,0,6.585,0.896,8.747,2.688c2.163,1.792,3.497,4.329,4.001,7.611
			c0.05,0.354,0.11,0.842,0.177,1.464l-6.462,1.615c-0.017-0.285-0.06-0.715-0.127-1.287c-0.286-2.053-0.93-3.698-1.931-4.936
			c-1.001-1.236-2.47-1.855-4.405-1.855c-1.549,0-2.743,0.434-3.584,1.3c-0.842,0.867-1.262,2.075-1.262,3.623
			c0,2.542,1.076,4.671,3.231,6.387l8.078,6.463c4.308,3.483,6.462,7.649,6.462,12.496c0,3.315-1.022,5.907-3.068,7.775
			C535.121,510.101,532.372,511.034,528.923,511.034z"/>
		<path fill="#FF9E1D" d="M548.636,478.267l-1.616-3.231c1.162,0,1.99-0.252,2.487-0.757c0.496-0.505,0.745-1.328,0.745-2.474
			h-3.231v-6.463h6.462c0,2.424-0.024,4.46-0.075,6.109c-0.035,0.909-0.085,1.675-0.151,2.298c-0.067,0.623-0.202,1.241-0.404,1.855
			c-0.202,0.614-0.472,1.103-0.808,1.464c-0.338,0.362-0.787,0.652-1.352,0.871C550.13,478.158,549.444,478.267,548.636,478.267z"/>
		<path fill="#FF9E1D" d="M579.709,510.579l-8.079-45.237h6.462l3.231,21.003l1.64,12.926l1.591-12.926l3.231-21.003h6.463
			l3.231,21.003l1.589,12.926l1.642-12.926l3.231-21.003h6.462l-8.078,45.237h-6.463l-3.231-21.003l-1.615-12.925l-1.616,12.925
			l-3.231,21.003H579.709z"/>
		<path fill="#FF9E1D" d="M612.121,510.579l9.694-45.237h6.462l9.694,45.237h-6.462l-2.424-11.309h-8.078l-2.423,11.309H612.121z
			 M621.814,494.424h6.462l-3.231-19.389L621.814,494.424z"/>
		<path fill="#FF9E1D" d="M643.674,510.579v-45.237h6.463v40.391h11.309v4.847H643.674z"/>
		<path fill="#FF9E1D" d="M666.518,510.579v-45.237h6.463v40.391h11.309v4.847H666.518z"/>
		<path fill="#FF9E1D" d="M689.361,510.579v-45.237h11.311c7.538,0,11.309,4.309,11.309,12.925c0,3.686-0.972,6.493-2.915,8.419
			c-1.944,1.928-4.743,2.891-8.394,2.891h-4.848v21.003H689.361z M695.824,484.729h1.615c1.465,0,2.664-0.084,3.598-0.252
			c0.935-0.168,1.759-0.483,2.475-0.946c0.715-0.463,1.228-1.124,1.539-1.982c0.311-0.858,0.468-1.952,0.468-3.282
			c0-1.615-0.118-2.923-0.354-3.925c-0.236-1.001-0.668-1.821-1.299-2.461s-1.448-1.081-2.449-1.326
			c-1.002-0.243-2.326-0.366-3.977-0.366h-1.615V484.729z"/>
		<path fill="#FF9E1D" d="M713.342,510.579l9.693-45.237h6.463l9.694,45.237h-6.463l-2.423-11.309h-8.078l-2.424,11.309H713.342z
			 M723.035,494.424h6.463l-3.23-19.389L723.035,494.424z"/>
		<path fill="#FF9E1D" d="M744.896,510.579v-45.237h11.31c7.539,0,11.309,4.309,11.309,12.925c0,3.686-0.972,6.493-2.915,8.419
			c-1.944,1.928-4.743,2.891-8.394,2.891h-4.848v21.003H744.896z M751.357,484.729h1.616c1.464,0,2.663-0.084,3.598-0.252
			c0.934-0.168,1.759-0.483,2.474-0.946s1.228-1.124,1.54-1.982c0.311-0.858,0.467-1.952,0.467-3.282
			c0-1.615-0.118-2.923-0.353-3.925c-0.237-1.001-0.67-1.821-1.301-2.461s-1.448-1.081-2.449-1.326
			c-1.002-0.243-2.326-0.366-3.976-0.366h-1.616V484.729z"/>
		<path fill="#FF9E1D" d="M773.242,510.579v-45.237h17.772v4.847h-11.31v14.541h8.078v4.847h-8.078v16.156h11.31v4.847H773.242z"/>
		<path fill="#FF9E1D" d="M797.045,510.579v-45.237h8.078c4.813,0,8.441,0.935,10.881,2.803s3.66,4.973,3.66,9.314
			c0,2.692-0.479,4.948-1.438,6.766c-0.96,1.817-2.366,3.063-4.217,3.736l7.27,22.618h-6.412l-6.512-21.003h-4.848v21.003H797.045z
			 M803.508,484.729h1.615c2.693,0,4.713-0.568,6.059-1.704c1.348-1.137,2.02-2.991,2.02-5.566c0-2.574-0.672-4.43-2.02-5.566
			c-1.346-1.136-3.365-1.704-6.059-1.704h-1.615V484.729z"/>
		<path fill="#FF9E1D" d="M851.266,511.034c-1.9,0-3.576-0.27-5.022-0.808c-1.448-0.539-2.634-1.283-3.56-2.234
			s-1.68-2.137-2.26-3.56c-0.581-1.421-0.988-2.941-1.225-4.557c-0.235-1.616-0.354-3.441-0.354-5.478v-12.9
			c0-2.035,0.118-3.862,0.354-5.478c0.236-1.615,0.644-3.134,1.225-4.557c0.58-1.422,1.334-2.604,2.26-3.547
			c0.926-0.942,2.111-1.682,3.56-2.222c1.446-0.538,3.122-0.808,5.022-0.808c2.104,0,3.922,0.312,5.453,0.935
			c1.531,0.622,2.756,1.539,3.674,2.751c0.917,1.212,1.607,2.617,2.068,4.216c0.464,1.6,0.737,3.467,0.821,5.604
			c0.017,0.319,0.026,0.817,0.026,1.489h-6.463v-1.438c-0.018-0.893-0.051-1.654-0.102-2.285c-0.05-0.631-0.143-1.283-0.277-1.956
			s-0.334-1.232-0.594-1.679c-0.262-0.446-0.588-0.858-0.984-1.237c-0.396-0.379-0.896-0.656-1.502-0.833
			c-0.605-0.178-1.312-0.266-2.121-0.266c-1.043,0-1.938,0.169-2.688,0.506c-0.748,0.337-1.333,0.77-1.754,1.299
			c-0.421,0.531-0.745,1.241-0.973,2.134c-0.226,0.893-0.374,1.763-0.44,2.612c-0.068,0.851-0.102,1.898-0.102,3.144v16.156
			c0,1.077,0.047,2.055,0.139,2.928c0.093,0.876,0.273,1.746,0.543,2.613c0.269,0.867,0.618,1.595,1.047,2.184
			c0.43,0.59,1.002,1.065,1.718,1.427c0.714,0.362,1.552,0.542,2.511,0.542c0.96,0,1.785-0.185,2.475-0.555
			c0.689-0.369,1.232-0.842,1.629-1.414c0.395-0.571,0.707-1.304,0.934-2.195c0.227-0.893,0.375-1.759,0.441-2.602
			c0.066-0.841,0.102-1.817,0.102-2.928v-1.615h6.463v1.615c0,2.339-0.207,4.393-0.619,6.159c-0.412,1.768-1.076,3.329-1.995,4.683
			c-0.917,1.355-2.161,2.386-3.735,3.093C855.386,510.681,853.488,511.034,851.266,511.034z"/>
		<path fill="#FF9E1D" d="M869.668,510.579v-45.237h8.078c4.812,0,8.439,0.935,10.879,2.803c2.441,1.868,3.662,4.973,3.662,9.314
			c0,2.692-0.48,4.948-1.439,6.766c-0.96,1.817-2.364,3.063-4.216,3.736l7.271,22.618h-6.412l-6.514-21.003h-4.846v21.003H869.668z
			 M876.131,484.729h1.615c2.691,0,4.711-0.568,6.059-1.704c1.346-1.137,2.02-2.991,2.02-5.566c0-2.574-0.674-4.43-2.02-5.566
			c-1.348-1.136-3.367-1.704-6.059-1.704h-1.615V484.729z"/>
		<path fill="#FF9E1D" d="M899.707,510.579v-45.237h17.771v4.847h-11.31v14.541h8.079v4.847h-8.079v16.156h11.31v4.847H899.707z"/>
		<path fill="#FF9E1D" d="M920.682,510.579l9.694-45.237h6.462l9.694,45.237h-6.463l-2.423-11.309h-8.078l-2.424,11.309H920.682z
			 M930.376,494.424h6.462l-3.23-19.389L930.376,494.424z"/>
		<path fill="#FF9E1D" d="M955.795,510.579v-39.481h-8.078v-5.756h22.619v5.756h-8.078v39.481H955.795z"/>
		<path fill="#FF9E1D" d="M986.92,511.034c-2.273,0-4.221-0.345-5.845-1.035c-1.624-0.689-2.915-1.699-3.874-3.029
			c-0.96-1.329-1.659-2.891-2.096-4.683c-0.438-1.792-0.657-3.875-0.657-6.248V479.63c0-2.373,0.22-4.442,0.657-6.21
			c0.437-1.767,1.136-3.303,2.096-4.607c0.959-1.304,2.25-2.284,3.874-2.94c1.624-0.655,3.571-0.984,5.845-0.984
			c4.408,0,7.59,1.262,9.541,3.786c1.953,2.524,2.929,6.177,2.929,10.956v16.409c0,2.339-0.222,4.405-0.669,6.197
			c-0.445,1.793-1.148,3.357-2.107,4.695c-0.96,1.338-2.252,2.356-3.875,3.055C991.113,510.685,989.174,511.034,986.92,511.034z
			 M982.211,503.688c0.867,1.363,2.436,2.044,4.709,2.044c2.271,0,3.84-0.681,4.707-2.044s1.301-3.374,1.301-6.034v-19.64
			c0-2.626-0.43-4.586-1.287-5.882c-0.859-1.296-2.433-1.944-4.721-1.944c-2.289,0-3.863,0.648-4.721,1.944
			c-0.858,1.296-1.289,3.256-1.289,5.882v19.64C980.91,500.314,981.345,502.325,982.211,503.688z"/>
		<path fill="#FF9E1D" d="M1007.113,510.579v-45.237h8.077c4.813,0,8.44,0.935,10.88,2.803s3.66,4.973,3.66,9.314
			c0,2.692-0.479,4.948-1.438,6.766c-0.961,1.817-2.365,3.063-4.217,3.736l7.27,22.618h-6.412l-6.512-21.003h-4.847v21.003H1007.113
			z M1013.575,484.729h1.615c2.692,0,4.713-0.568,6.06-1.704c1.346-1.137,2.02-2.991,2.02-5.566c0-2.574-0.674-4.43-2.02-5.566
			c-1.347-1.136-3.367-1.704-6.06-1.704h-1.615V484.729z"/>
	</g>
	<g>
		<polygon fill="#E6E6E6" points="1087.5,288.5 1087.5,491.5 1042.5,491.5 1042.5,485.5 1081.5,485.5 1081.5,294.5 196.5,294.5 
			196.5,485.5 235.5,485.5 235.5,491.5 190.5,491.5 190.5,288.5 		"/>
	</g>
</g>
</svg>
