<?xml version="1.0" encoding="utf-8"?>
<!-- Generator: Adobe Illustrator 16.0.0, SVG Export Plug-In . SVG Version: 6.00 Build 0)  -->
<!DOCTYPE svg PUBLIC "-//W3C//DTD SVG 1.1//EN" "http://www.w3.org/Graphics/SVG/1.1/DTD/svg11.dtd">
<svg version="1.1" id="Layer_1" xmlns="http://www.w3.org/2000/svg" xmlns:xlink="http://www.w3.org/1999/xlink" x="0px" y="0px"
	 width="170.5px" height="36px" viewBox="18.667 3.375 170.5 36" enable-background="new 18.667 3.375 170.5 36"
	 xml:space="preserve">
<g>
	<g>
		<g>
			<path fill="#E6E6E6" d="M47.031,15.055l-1.746,3.631c-1.635-0.931-3.949-1.771-5.288-1.771c-0.795,0-1.316,0.273-1.316,0.862
				c0,2.339,8.306,0.953,8.306,6.695c0,3.381-2.995,4.993-6.558,4.993c-2.701,0-5.651-0.953-7.648-2.52l1.771-3.586
				c1.634,1.385,4.289,2.429,5.923,2.429c0.998,0,1.634-0.341,1.634-1.066c0-2.406-8.306-0.886-8.306-6.491
				c0-3.063,2.609-5.015,6.581-5.015C42.811,13.217,45.306,13.943,47.031,15.055z"/>
			<path fill="#E6E6E6" d="M59.99,29.33v-5.923h-5.651v5.923h-4.72V13.421h4.72v6.331h5.651v-6.331h4.72V29.33H59.99z"/>
			<path fill="#E6E6E6" d="M84.724,21.364c0,4.675-3.677,8.17-8.668,8.17c-4.993,0-8.67-3.473-8.67-8.17
				c0-4.675,3.677-8.079,8.67-8.079C81.047,13.285,84.724,16.711,84.724,21.364z M72.22,21.387c0,2.404,1.816,4.198,3.903,4.198
				c2.088,0,3.768-1.794,3.768-4.198c0-2.406-1.68-4.153-3.768-4.153C74.013,17.234,72.22,18.981,72.22,21.387z"/>
			<path fill="#E6E6E6" d="M100.927,29.33l-2.542-10.145L95.798,29.33h-4.856l-5.174-15.908h5.038l2.723,11.006l2.655-10.982
				l4.606-0.023l2.724,11.006l2.655-11.006h4.834l-5.22,15.908H100.927z"/>
			<path fill="#E6E6E6" d="M126.54,16.099l-2.724,3.223c-0.999-1.271-2.474-2.11-3.79-2.11c-2.155,0-3.789,1.747-3.789,4.085
				c0,2.337,1.634,4.106,3.789,4.106c1.226,0,2.7-0.726,3.79-1.838l2.724,2.905c-1.725,1.86-4.335,3.063-6.739,3.063
				c-4.834,0-8.396-3.495-8.396-8.192c0-4.63,3.63-8.057,8.555-8.057C122.364,13.285,124.928,14.375,126.54,16.099z"/>
			<path fill="#E6E6E6" d="M133.515,26.788l-0.953,2.542h-4.856l6.785-15.908h4.856l6.559,15.908h-5.038l-0.931-2.542H133.515z
				 M136.783,18.141l-1.951,5.197h3.857L136.783,18.141z"/>
			<path fill="#E6E6E6" d="M161.132,15.055l-1.747,3.631c-1.634-0.931-3.948-1.771-5.287-1.771c-0.795,0-1.316,0.273-1.316,0.862
				c0,2.339,8.306,0.953,8.306,6.695c0,3.381-2.995,4.993-6.559,4.993c-2.7,0-5.65-0.953-7.647-2.52l1.77-3.586
				c1.635,1.385,4.289,2.429,5.923,2.429c0.999,0,1.635-0.341,1.635-1.066c0-2.406-8.307-0.886-8.307-6.491
				c0-3.063,2.61-5.015,6.582-5.015C156.912,13.217,159.408,13.943,161.132,15.055z"/>
			<path fill="#E6E6E6" d="M168.44,17.052v2.496h7.511v3.631h-7.511v2.52h8.51v3.631h-13.23V13.421h13.004v3.631H168.44z"/>
		</g>
	</g>
</g>
</svg>
